<svg width="150" height="40" viewBox="0 0 111 24" fill="none" xmlns="http://www.w3.org/2000/svg">
<rect width="49" height="22" transform="translate(0.5 1)" fill="#020202"/>
<path d="M14.796 7.172L11.394 13.752V17H9V13.752L5.598 7.172H8.314L10.218 11.288L12.108 7.172H14.796ZM21.8786 15.264H18.2106L17.6226 17H15.1166L18.6726 7.172H21.4446L25.0006 17H22.4666L21.8786 15.264ZM21.2626 13.416L20.0446 9.818L18.8406 13.416H21.2626ZM29.6388 17.098C28.9202 17.098 28.2762 16.9813 27.7068 16.748C27.1375 16.5147 26.6802 16.1693 26.3348 15.712C25.9988 15.2547 25.8215 14.704 25.8028 14.06H28.3508C28.3882 14.424 28.5142 14.704 28.7288 14.9C28.9435 15.0867 29.2235 15.18 29.5688 15.18C29.9235 15.18 30.2035 15.1007 30.4088 14.942C30.6142 14.774 30.7168 14.5453 30.7168 14.256C30.7168 14.0133 30.6328 13.8127 30.4648 13.654C30.3062 13.4953 30.1055 13.3647 29.8628 13.262C29.6295 13.1593 29.2935 13.0427 28.8548 12.912C28.2202 12.716 27.7022 12.52 27.3008 12.324C26.8995 12.128 26.5542 11.8387 26.2648 11.456C25.9755 11.0733 25.8308 10.574 25.8308 9.958C25.8308 9.04333 26.1622 8.32933 26.8248 7.816C27.4875 7.29333 28.3508 7.032 29.4148 7.032C30.4975 7.032 31.3702 7.29333 32.0328 7.816C32.6955 8.32933 33.0502 9.048 33.0968 9.972H30.5068C30.4882 9.65467 30.3715 9.40733 30.1568 9.23C29.9422 9.04333 29.6668 8.95 29.3308 8.95C29.0415 8.95 28.8082 9.02933 28.6308 9.188C28.4535 9.33733 28.3648 9.55667 28.3648 9.846C28.3648 10.1633 28.5142 10.4107 28.8128 10.588C29.1115 10.7653 29.5782 10.9567 30.2128 11.162C30.8475 11.3767 31.3608 11.582 31.7528 11.778C32.1542 11.974 32.4995 12.2587 32.7888 12.632C33.0782 13.0053 33.2228 13.486 33.2228 14.074C33.2228 14.634 33.0782 15.1427 32.7888 15.6C32.5088 16.0573 32.0982 16.4213 31.5568 16.692C31.0155 16.9627 30.3762 17.098 29.6388 17.098ZM43.2081 7.172V17H40.8141V12.954H37.0901V17H34.6961V7.172H37.0901V11.022H40.8141V7.172H43.2081Z" fill="white"/>
<path d="M63.984 16.016H59.792L59.12 18H56.256L60.32 6.768H63.488L67.552 18H64.656L63.984 16.016ZM63.28 13.904L61.888 9.792L60.512 13.904H63.28ZM72.9969 6.768C74.1809 6.768 75.2155 7.00267 76.1009 7.472C76.9862 7.94133 77.6689 8.60267 78.1489 9.456C78.6395 10.2987 78.8849 11.2747 78.8849 12.384C78.8849 13.4827 78.6395 14.4587 78.1489 15.312C77.6689 16.1653 76.9809 16.8267 76.0849 17.296C75.1995 17.7653 74.1702 18 72.9969 18H68.7889V6.768H72.9969ZM72.8209 15.632C73.8555 15.632 74.6609 15.3493 75.2369 14.784C75.8129 14.2187 76.1009 13.4187 76.1009 12.384C76.1009 11.3493 75.8129 10.544 75.2369 9.968C74.6609 9.392 73.8555 9.104 72.8209 9.104H71.5249V15.632H72.8209ZM93.1339 6.768V18H90.3979V11.264L87.8859 18H85.6779L83.1499 11.248V18H80.4139V6.768H83.6459L86.7979 14.544L89.9179 6.768H93.1339ZM97.8374 6.768V18H95.1014V6.768H97.8374ZM109.868 18H107.132L102.556 11.072V18H99.8201V6.768H102.556L107.132 13.728V6.768H109.868V18Z" fill="#452B90"/>
</svg>
