<svg width="80" height="81" viewBox="0 0 76 77" fill="none" xmlns="http://www.w3.org/2000/svg">
<path d="M16.712 10.4542L11.6771 20.411C11.4894 20.7826 11.5178 21.2237 11.7516 21.5683C19.2766 32.6439 20.1904 46.8295 14.148 58.7791L14.1461 58.7834C13.9584 59.1551 13.9868 59.5962 14.2206 59.9407L20.4889 69.1701C20.7227 69.5147 21.1267 69.7106 21.5493 69.6835L32.8525 68.9562C33.2751 68.929 33.6506 68.6828 33.8383 68.3112C39.8785 56.3607 53.953 48.3328 67.5194 47.4599L67.5236 47.4596C67.9451 47.4325 68.3217 47.1863 68.5094 46.8147L73.5443 36.8579C73.6387 36.6715 73.6777 36.4689 73.6649 36.2686C73.652 36.0683 73.5862 35.8724 73.4698 35.6996L67.2004 26.4702C66.9666 26.1257 66.5626 25.9297 66.1401 25.9569C52.5737 26.8309 37.5854 20.673 30.0613 9.59529L30.0601 9.59328C29.8264 9.24877 29.4224 9.05279 28.9998 9.07998L17.6976 9.8072C17.2753 9.83751 16.8997 10.0826 16.712 10.4542ZM28.468 11.4414L46.897 38.5735C47.1308 38.918 47.5347 39.114 47.9573 39.0868L56.8607 38.514C57.3791 39.3977 58.4045 39.9466 59.5238 39.8069C60.8404 39.6419 61.8485 38.5349 61.8647 37.2332C61.8843 35.6864 60.5615 34.4813 59.0163 34.5807C57.9636 34.6484 57.0912 35.3038 56.7107 36.1985C51.623 36.5259 46.7507 34.1683 43.9291 30.0144L43.734 29.7268L65.6082 28.3183L71.1211 36.4344L66.6938 45.19L31.4702 47.4565C31.0487 47.4836 30.6721 47.7298 30.4844 48.1014L26.5185 55.9457C26.4599 55.9453 26.4016 55.947 26.3423 55.9508C24.831 56.048 23.6911 57.3553 23.8454 58.8451C23.9858 60.2003 25.1859 61.234 26.5756 61.1967C28.1032 61.1557 29.2813 59.8804 29.186 58.3993C29.1513 57.8596 28.9528 57.369 28.6411 56.9712C30.9072 52.4899 35.4371 49.5273 40.5248 49.2L40.8754 49.1774L32.0239 66.6886L22.0847 67.3281L16.5717 59.212L31.3716 29.9418C31.5593 29.5701 31.5309 29.129 31.2971 28.7845L26.3586 21.5142C26.6196 21.0754 26.7533 20.5571 26.715 20.0125C26.6146 18.5838 25.336 17.4874 23.8775 17.5792C22.3979 17.6723 21.2746 18.9233 21.3678 20.3721C21.461 21.82 22.7342 22.9157 24.2105 22.8207C24.2698 22.8169 24.328 22.8111 24.3859 22.8032C27.2077 26.9581 27.55 32.2783 25.284 36.7606L25.1284 37.0686L14.1027 20.8396L18.53 12.0839L28.4682 11.4445L28.468 11.4414Z" fill="#452B90"/>
</svg>
